<svg id="Capa_1" enable-background="new 0 0 407.196 407.196" height="300" viewBox="0 0 407.196 407.196" width="300" xmlns="http://www.w3.org/2000/svg" version="1.1" xmlns:xlink="http://www.w3.org/1999/xlink" xmlns:svgjs="http://svgjs.dev/svgjs"><g transform="matrix(1,0,0,1,0,0)"><g><path d="m112 403.598h-64c-26.51 0-48-21.49-48-48v-112c0-26.51 21.49-48 48-48h64c8.837 0 16 7.163 16 16v176c0 8.837-7.163 16-16 16zm-64-176c-8.837 0-16 7.163-16 16v112c0 8.837 7.163 16 16 16h48v-144z" fill="#ffffff" fill-opacity="1" data-original-color="#000000ff" stroke="none" stroke-opacity="1"/><path d="m300.272 403.598h-188.272c-8.837 0-16-7.163-16-16v-176c.004-1.719.285-3.426.832-5.056l55.536-166.624c7.2-21.709 27.513-36.351 50.384-36.32h.128c29.326.026 53.094 23.794 53.12 53.12v90.88h98.08c29.337.002 53.118 23.786 53.116 53.124 0 3.742-.396 7.474-1.18 11.132l-27.536 128.496c-8.041 36.797-40.544 63.082-78.208 63.248zm-172.272-32h172.272c22.602-.095 42.108-15.87 46.928-37.952l27.536-128.448c2.465-11.41-4.785-22.658-16.195-25.123-1.466-.317-2.961-.477-4.461-.477h-114.08c-8.837 0-16-7.163-16-16v-106.88c-.026-11.653-9.467-21.094-21.12-21.12h-.128c-9.08-.022-17.15 5.784-20.016 14.4l-54.736 164.192z" fill="#ffffff" fill-opacity="1" data-original-color="#000000ff" stroke="none" stroke-opacity="1"/></g></g></svg>