<svg clip-rule="evenodd" fill-rule="evenodd" height="300" image-rendering="optimizeQuality" shape-rendering="geometricPrecision" text-rendering="geometricPrecision" viewBox="0 0 43.3492 43.3492" width="300" xmlns="http://www.w3.org/2000/svg" version="1.1" xmlns:xlink="http://www.w3.org/1999/xlink" xmlns:svgjs="http://svgjs.dev/svgjs"><g width="100%" height="100%" transform="matrix(1,0,0,1,0,0)"><g id="Layer_x0020_1"><path d="m15.0344 30.0756c-3.8434 0-7.6869-1.4809-10.6135-4.4077-5.8886-5.8533-5.8886-15.3738-.0353-21.2623 5.8533-5.8534 15.3738-5.8534 21.2625 0 5.8533 5.8533 5.8533 15.3737 0 21.2625-2.9267 2.9266-6.7701 4.4075-10.6137 4.4075zm0-2.4683c-3.2088 0-6.4528-1.2341-8.8858-3.6671-4.9365-4.9013-4.9365-12.8703-.0353-17.8069 4.9367-4.9013 12.9057-4.9013 17.8069 0 4.9013 4.9012 4.9013 12.8702 0 17.7716-2.4682 2.4683-5.677 3.7024-8.8858 3.7024z" fill="#ffffff" fill-opacity="1" data-original-color="#000000ff" stroke="none" stroke-opacity="1"/><path d="m26.7411 29.4762c-.1411 0-.2468-.0352-.3526-.141l-2.6093-2.6447c-.509-.5124 2.4882-3.3329 2.8915-2.8915l2.6093 2.6093c.2037.2038.1696.4983 0 .7052l-2.1862 2.1862c-.0705.106-.2116.1765-.3527.1765z" fill="#ffffff" fill-opacity="1" data-original-color="#000000ff" stroke="none" stroke-opacity="1"/><path d="m39.7525 43.3338c-.9521 0-1.8689-.3878-2.5388-1.0578l-1.2435-1.2435 5.0466-5.1087 1.2746 1.2746c2.2616 2.2617.648 6.1354-2.5389 6.1354zm-4.5033-3.0223-.8463-.8463 5.0435-5.1118.8463.8463zm-1.5357-1.5357-8.3827-8.3828c-.2038-.2037-.1696-.4982 0-.7051l4.3724-4.3724c.2115-.2116.5288-.2116.7053 0l8.3517 8.3517z" fill="#ffffff" fill-opacity="1" data-original-color="#000000ff" stroke="none" stroke-opacity="1"/><path d="m10.0257 10.0619c-2.8014 2.6779-2.7005 7.2143.0082 9.9225.6412.6411.1777 1.7486-.7118 1.7486-.6994 0-1.3862-.8849-1.7363-1.4067-.6284-.9366-1.0879-2.0594-1.3513-3.1532-.7663-3.182.0481-6.2152 2.3759-8.5428.2764-.2763.6594-.3873 1.0332-.2548.7012.2484.9401 1.1531.3821 1.6864z" fill="#ffffff" fill-opacity="1" data-original-color="#000000ff" stroke="none" stroke-opacity="1"/></g></g></svg>