<svg id="Outline" height="300" viewBox="0 0 32 32" width="300" xmlns="http://www.w3.org/2000/svg" version="1.1" xmlns:xlink="http://www.w3.org/1999/xlink" xmlns:svgjs="http://svgjs.dev/svgjs"><g transform="matrix(1,0,0,1,0,0)"><g><path d="m29 13h-6c-1.6543 0-3 1.3457-3 3v1.18427c-.31433-.11207-.64764-.18427-1-.18427h-6c-1.6543 0-3 1.3457-3 3v1.18427c-.31433-.11207-.64764-.18427-1-.18427h-6c-1.6543 0-3 1.3457-3 3v5c0 1.6543 1.3457 3 3 3h6c.77112 0 1.46802-.30054 2-.78027.53198.47973 1.22888.78027 2 .78027h6c.77112 0 1.46802-.30054 2-.78027.53198.47973 1.22888.78027 2 .78027h6c1.6543 0 3-1.3457 3-3v-13c0-1.6543-1.3457-3-3-3zm-20 17h-6c-.55127 0-1-.44824-1-1v-5c0-.55176.44873-1 1-1h6c.55127 0 1 .44824 1 1v5c0 .55176-.44873 1-1 1zm10 0h-6c-.55127 0-1-.44824-1-1v-9c0-.55176.44873-1 1-1h6c.55127 0 1 .44824 1 1v9c0 .55176-.44873 1-1 1zm11-1c0 .55176-.44873 1-1 1h-6c-.55127 0-1-.44824-1-1v-13c0-.55176.44873-1 1-1h6c.55127 0 1 .44824 1 1z" fill="#ffffff" fill-opacity="1" data-original-color="#000000ff" stroke="none" stroke-opacity="1"/><path d="m22.47363 6.38281c.35157.25489.49707.70313.3628 1.11719 0 0-.63839 1.96577-.64062 1.97264-.29112.89644.7748 1.67496 1.53906 1.11721l1.67725-1.21875c.35156-.25586.82422-.25586 1.17578 0 0 0 1.67214 1.21504 1.67723 1.21874.76222.55386 1.83091-.21823 1.53907-1.11718l-.64063-1.97363c-.13427-.41309.01123-.86133.36329-1.11719 0 0 1.67391-1.21597 1.67773-1.21875.76349-.55462.35916-1.8086-.58788-1.8086h-2.07373c-.43457 0-.81689-.27832-.95117-.69141 0 0-.63906-1.96686-.64062-1.97167-.29074-.89483-1.6117-.89528-1.90235-.00001l-.64063 1.9707c-.13428.41406-.5166.69238-.95117.69238 0 0-2.06971 0-2.07372 0-.94535 0-1.35594 1.25235-.5879 1.80859zm3.52637-2.43554c.41064.6582 1.06104 1.12988 1.81299 1.31836-.49853.59277-.74706 1.35741-.69238 2.13084-.01011-.14308-.96766-.20419-1.10401-.20658-.39318-.0069-.77086.05828-1.1372.2066.0542-.77344-.19385-1.53809-.69238-2.13086.75194-.18848 1.40185-.66016 1.81298-1.31836z" fill="#ffffff" fill-opacity="1" data-original-color="#000000ff" stroke="none" stroke-opacity="1"/><path d="m1 17h6c.37891 0 .7251-.21387.89453-.55273l1.72363-3.44727h6.38184c.37891 0 .7251-.21387.89453-.55273l2-4c.24707-.49414.04688-1.09473-.44727-1.3418-.49512-.24512-1.09473-.0459-1.3418.44727l-1.72362 3.44726h-6.38184c-.37891 0-.7251.21387-.89453.55273l-1.72363 3.44727h-5.38184c-.55225 0-1 .44727-1 1s.44775 1 1 1z" fill="#ffffff" fill-opacity="1" data-original-color="#000000ff" stroke="none" stroke-opacity="1"/></g></g></svg>