<svg clip-rule="evenodd" fill-rule="evenodd" height="300" image-rendering="optimizeQuality" shape-rendering="geometricPrecision" text-rendering="geometricPrecision" viewBox="0 0 1707 1707" width="300" xmlns="http://www.w3.org/2000/svg" version="1.1" xmlns:xlink="http://www.w3.org/1999/xlink" xmlns:svgjs="http://svgjs.dev/svgjs"><g transform="matrix(1,0,0,1,0,0)"><g id="Layer_x0020_1"><g id="_621400952"><path d="m1391 1499h-1075c-60 0-107-47-107-106v-688c0-60 47-106 107-106h1072c59 0 106 46 106 106v688c3 59-47 106-103 106zm-355-172h-369c-25 0-43-19-43-44s18-44 43-44h372c25 0 44 19 44 44s-22 44-47 44zm-456-225c-91 0-166-75-166-166 0-90 75-165 166-165s166 75 166 165c0 94-72 166-166 166zm0-238c-41 0-75 35-75 75 0 41 34 75 75 75 40 0 75-34 75-75 0-40-31-75-75-75zm544 238c-91 0-166-75-166-166 0-90 75-165 166-165 90 0 165 75 165 165-3 94-75 166-165 166zm0-238c-41 0-75 35-75 75 0 41 34 75 75 75 40 0 75-34 75-75-3-40-35-75-75-75z" fill="#2f5fc6" fill-opacity="1" data-original-color="#000000ff" stroke="none" stroke-opacity="1"/><path d="m853 689c-25 0-43-19-43-44v-218c0-25 18-44 43-44s44 19 44 44v218c0 25-19 44-44 44z" fill="#2f5fc6" fill-opacity="1" data-original-color="#000000ff" stroke="none" stroke-opacity="1"/><path d="m853 470c-72 0-131-59-131-131s59-131 131-131 132 59 132 131-60 131-132 131z" fill="#2f5fc6" fill-opacity="1" data-original-color="#000000ff" stroke="none" stroke-opacity="1"/><path d="m1569 825c82 43 138 129 138 227 2 98-54 185-138 228z" fill="#2f5fc6" fill-opacity="1" data-original-color="#000000ff" stroke="none" stroke-opacity="1"/><path d="m134 1277c-79-44-134-129-134-225 0-97 55-182 134-225z" fill="#2f5fc6" fill-opacity="1" data-original-color="#000000ff" stroke="none" stroke-opacity="1"/></g></g></g></svg>