<svg height="300" viewBox="0 0 48 48" width="300" xmlns="http://www.w3.org/2000/svg" version="1.1" xmlns:xlink="http://www.w3.org/1999/xlink" xmlns:svgjs="http://svgjs.dev/svgjs"><g transform="matrix(1,0,0,1,0,0)"><g id="Line"><g><path d="m39.136 25.999 6.745-12.524c.265-.378.119-1.475-.881-1.475h-12v-2c0-2.757-2.243-5-5-5h-20c-.338-4.183-6-3.644-6 0v38c-.296 3.43 5.599 4.549 6 0v-10h21v2c0 2.757 2.243 5 5 5h11c.915 0 1.162-.967.881-1.474zm-33.136 17.001c0 1.311-2 1.287-2 0v-38c0-1.347 2-1.299 2 0zm2-36h20c1.654 0 3 1.346 3 3v21h-23zm26 31c-1.654 0-3-1.346-3-3v-2h1c.553 0 1-.447 1-1v-18h10.326l-6.207 11.524c-.159.297-.159.652 0 .948l6.207 11.528z" fill="#ffffff" fill-opacity="1" data-original-color="#000000ff" stroke="none" stroke-opacity="1"/><path d="m24 23h-1v-13c0-.553-.447-1-1-1h-4c-.379 0-.725.214-.895.553l-2 4c-.245.466-.054 1.415.895 1.447h1v8h-1c-.553 0-1 .447-1 1v4c0 .553.447 1 1 1h8c.553 0 1-.447 1-1v-4c0-.553-.447-1-1-1zm-1 4h-6v-2h1c.553 0 1-.447 1-1v-10c0-.553-.447-1-1-1h-.382l1-2h2.382v13c0 .553.447 1 1 1h1z" fill="#ffffff" fill-opacity="1" data-original-color="#000000ff" stroke="none" stroke-opacity="1"/></g></g></g></svg>