<svg id="Layer_1" enable-background="new 0 0 512.396 512.396" height="300" viewBox="0 0 512.396 512.396" width="300" xmlns="http://www.w3.org/2000/svg" version="1.1" xmlns:xlink="http://www.w3.org/1999/xlink" xmlns:svgjs="http://svgjs.dev/svgjs"><g transform="matrix(1,0,0,1,0,0)"><g><path d="m55.827 268.773-.167-57.207h-16.486c-51.147 1.898-51.108 75.3 0 77.18h17.856c-.724-6.569-1.132-13.231-1.203-19.973z" fill="#ff8345" fill-opacity="1" data-original-color="#000000ff" stroke="none" stroke-opacity="1"/><path d="m93.417 71.913c-6.619 18.018-8.184 35.602-8.344 47.092.514-.549 1.031-1.095 1.558-1.635 20.136-20.613 47.134-31.965 76.021-31.965l185.722.299c30.772 0 58.589 12.977 78.309 33.77l-.003-63.808c0-9.205-4.129-17.773-11.329-23.508-7.148-5.693-16.343-7.813-25.256-5.826-54.901 15.591-103.481 1.757-147.629-18.259-17.23-7.195-36.939-9.684-55.307-7.052-47.742 7.014-79.282 31.53-93.742 70.892z" fill="#ff8345" fill-opacity="1" data-original-color="#000000ff" stroke="none" stroke-opacity="1"/><path d="m348.349 115.704-185.722-.299c-20.716 0-40.093 8.143-54.537 22.929-14.464 14.807-22.43 34.616-22.43 55.781l.14 72.54c8.592 225.782 332.252 225.61 340.763 0v-72.267c.001-43.387-35.086-78.684-78.214-78.684zm-186.653 136.431c-9.574 0-17.336-7.762-17.336-17.336.85-22.971 33.826-22.965 34.672 0 0 9.575-7.761 17.336-17.336 17.336zm151.234 99.605c-29.028 29.746-83.577 30.096-113.297.162-5.986-5.727-6.196-15.222-.47-21.208 5.727-5.987 15.222-6.195 21.208-.47 18.494 18.837 53.701 18.49 71.486.162 5.897-5.818 15.394-5.755 21.213.141 5.819 5.897 5.756 15.395-.14 21.213zm34.272-99.605c-9.574 0-17.336-7.762-17.336-17.336.85-22.971 33.826-22.965 34.672 0 0 9.575-7.762 17.336-17.336 17.336z" fill="#ff8345" fill-opacity="1" data-original-color="#000000ff" stroke="none" stroke-opacity="1"/><path d="m473.222 211.565h-16.659v55.09c0 7.466-.424 14.834-1.224 22.09h17.882c51.148-1.898 51.11-75.3.001-77.18z" fill="#ff8345" fill-opacity="1" data-original-color="#000000ff" stroke="none" stroke-opacity="1"/><path d="m256.182 467.037c-28.239 0-55.125-5.885-79.515-16.472v43.639c0 10.047 8.145 18.192 18.192 18.192h122.678c10.047 0 18.192-8.145 18.192-18.192v-43.65c-24.399 10.594-51.296 16.483-79.547 16.483z" fill="#ff8345" fill-opacity="1" data-original-color="#000000ff" stroke="none" stroke-opacity="1"/></g></g></svg>